<svg height="60" viewBox="0 0 73 60" width="73" xmlns="http://www.w3.org/2000/svg" xmlns:xlink="http://www.w3.org/1999/xlink"><linearGradient id="a" x1="50%" x2="50%" y1="0%" y2="99.54867%"><stop offset="0" stop-color="#ffdc60"/><stop offset="1" stop-color="#e79b53"/></linearGradient><linearGradient id="b" x1="50%" x2="50%" y1="0%" y2="100%"><stop offset="0" stop-color="#ffdc60"/><stop offset=".995486698" stop-color="#e79b53"/></linearGradient><linearGradient id="c" x1="50%" x2="50%" y1="0%" y2="100%"><stop offset="0" stop-color="#ffdb60"/><stop offset="1" stop-color="#e89d53"/></linearGradient><mask id="d" fill="#fff"><path d="m.00012944.08562337h29.06534836v58.16156763h-29.06534836z" fill="#fff" fill-rule="evenodd"/></mask><mask id="e" fill="#fff"><path d="m.1782364.08562337h29.0647011v58.16156763h-29.0647011z" fill="#fff" fill-rule="evenodd"/></mask><g fill="none" fill-rule="evenodd"><path d="m29.0654778 57.2694796c-.0737798-.0220045-3.4003416-1.040036-7.3844495-3.3291506.7170877-.8840629 2.0438292-3.1841798-.3663101-6.1748494 0 0-1.8425528 3.0916314-.7274427 5.523128-1.4102292-.8717663-2.8689977-1.8988584-4.2746966-3.0929258.4174382-.4083775 2.7790382-2.9796674-.0660135-6.5100944 0 0-2.1842697 3.6631011-.3566023 6.149609-1.8218427-1.6043865-3.5226606-3.5006562-4.8772314-5.7049888.6899056-.3112988 3.5621393-1.8878561 2.2496359-6.058355 0 0-3.26960895 2.5363416-2.6081797 5.4616449-.77727644-1.3636314-1.4212315-2.8392269-1.87361801-4.4377887-.16762247-.5908854-.30676854-1.1746517-.43491236-1.7558292.91771685-.1876854 3.78930337-1.1047551 3.58608537-5.2655461 0 0-3.29484942 1.4076404-3.83460672 4.0190562-.4032-2.2975281-.51451685-4.5076854-.41161348-6.6019955 1.03615281.1436764 3.3906337.0776629 4.5905258-3.1291686 0 0-3.06056625-.0045303-4.49668311 1.812782.19351012-2.0833078.58959101-4.0391191 1.1015191-5.8402516.83487641.3313618 3.38675061 1.0024988 5.29402251-2.1525573 0 0-3.3162068-.6329529-5.0066697 1.1908314.72097079-2.2787595 1.6128-4.2766382 2.4852135-5.9360359.8989483.5164584 3.123991 1.3506876 5.4370517-1.2018338 0 0-2.7628585-1.104755-4.7626787-.0258876 1.2413124-2.1596764 2.3298877-3.5511371 2.6599551-3.9543371.3520719-.43167637.7255011-.83811233 1.1060494-1.23354604.5649978.39931686 3.096809 1.90403594 5.7399371-1.01220674 0 0-2.5771146-1.03226966-4.5549303-.13267416 1.263964-1.1371146 2.5881168-2.09689887 3.8268404-2.8793528.8180494.50286741 3.1356405 1.52154606 5.546427-1.13840899 0 0-1.2303101-.49251236-2.6424809-.50222023 1.3358022-.66790112 2.2366921-1.00832359 2.2612854-1.01738427l-.3527191-.95784269c-.2349304.08672359-4.7303191 1.77200898-8.8360989 5.29790561.7002607-1.20118651 1.5526112-3.74011685-1.3034427-6.59358202 0 0-2.5227506 5.37556854.6083595 7.21812135-.7630382.70479101-1.5047191 1.46718202-2.1900943 2.30594157-.6271281.76886291-1.2490787 1.61927191-1.8516135 2.54087191.3947865-1.5914427.2187505-3.80677753-2.1875056-6.21044494 0 0-3.02497083 6.44084494.7876314 8.57981124-.6620764 1.2186607-1.28208537 2.5188674-1.83090335 3.9038562-.09448989-1.5364315-.85429214-3.3893394-3.33173933-5.0565034 0 0-1.68399101 6.712018 2.25740225 8.2076764-.41096629 1.4005214-.74750562 2.8541124-.98373034 4.3568899-.28605842-1.5759101-1.32026966-3.439173-4.28764045-4.7167281 0 0-.43814831 7.1715236 3.95822023 7.6931596-.12361348 1.8820314-.09190112 3.815191.14238202 5.7820045-.81675505-1.7014652-2.66577977-3.6883416-6.86928539-3.6876944 0 0 2.64312809 7.3236135 7.25501123 6.1263101.15014832.7449168.3313618 1.4930696.54364045 2.2438112.18833259.6633708.41484944 1.3008539.66142922 1.9247461-1.32026967-1.2018337-3.50712809-2.1564405-7.01166742-1.2374292 0 0 4.31223371 6.2635146 8.42772135 4.1594966.91577533 1.5681438 2.00240903 2.9835506 3.18482693 4.2624-1.6716943-.6756674-4.09736626-.8180494-7.09062468 1.3629843 0 0 6.26933928 4.2391011 9.34220228.8258157.9889078.864 2.0082337 1.643218 3.0217348 2.3473618-1.7610067-.2990022-4.120018.0789573-6.5735191 2.7525034 0 0 6.9611865 2.9110651 9.3104899-1.0154427 4.1504359 2.4043146 7.6264989 3.469591 7.7035146 3.4922427z" fill="url(#a)" mask="url(#d)" transform="translate(0 .561568)"/><path d="m.1782364 57.2694796c.07377978-.0220045 3.39969439-1.040036 7.38380225-3.3291506-.71708764-.8840629-2.04318202-3.1841798.36631011-6.1748494 0 0 1.8432 3.0916314.7274427 5.523128 1.41087644-.8717663 2.86899774-1.8988584 4.27469664-3.0929258-.4174382-.4083775-2.7790382-2.9796674.0666607-6.5100944 0 0 2.1842696 3.6631011.355955 6.149609 1.8218427-1.6043865 3.5233079-3.5006562 4.8772315-5.7049888-.6899056-.3112988-3.5621393-1.8878561-2.2489888-6.058355 0 0 3.2689618 2.5363416 2.6081798 5.4616449.7766292-1.3636314 1.4212315-2.8392269 1.873618-4.4377887.1669753-.5908854.3067685-1.1746517.4349123-1.7558292-.9177168-.1876854-3.7899505-1.1047551-3.5860854-5.2655461 0 0 3.2948495 1.4076404 3.8346068 4.0190562.4032-2.2975281.5145168-4.5076854.4109663-6.6019955-1.0361528.1436764-3.3906337.0776629-4.5898787-3.1291686 0 0 3.0605663-.0045303 4.496036 1.812782-.1935101-2.0833078-.5889438-4.0391191-1.1015191-5.8402516-.8342292.3313618-3.3861034 1.0024988-5.2933753-2.1525573 0 0 3.3162067-.6329529 5.0060225 1.1908314-.7209708-2.2787595-1.6128-4.2766382-2.4845663-5.9360359-.8989483.5164584-3.123991 1.3506876-5.4376989-1.2018338 0 0 2.7628584-1.104755 4.7633258-.0258876-1.2413123-2.1596764-2.3305348-3.5511371-2.659955-3.9543371-.3527191-.43167637-.7255011-.83811233-1.1060495-1.23354604-.5656449.39931686-3.0974561 1.90403594-5.74058423-1.01220674 0 0 2.57711461-1.03226966 4.55493033-.13267416-1.2633168-1.1371146-2.58811684-2.09689887-3.82619325-2.8793528-.81869663.50286741-3.13564045 1.52154606-5.54642696-1.13840899 0 0 1.22966292-.49251236 2.6418337-.50222023-1.33515505-.66790112-2.23604494-1.00832359-2.2606382-1.01738427l.3527191-.95784269c.23428315.08672359 4.7303191 1.77200898 8.83545171 5.29790561-.6996135-1.20118651-1.5526113-3.74011685 1.3040899-6.59358202 0 0 2.5227505 5.37556854-.6083596 7.21812135.7630382.70479101 1.5047191 1.46718202 2.1900944 2.30594157.6271281.76886291 1.2490786 1.61927191 1.8509663 2.54087191-.3947865-1.5914427-.2187506-3.80677753 2.1881528-6.21044494 0 0 3.0243236 6.44084494-.7882787 8.57981124.6627236 1.2186607 1.2827326 2.5188674 1.8315506 3.9038562.0944899-1.5364315.853645-3.3893394 3.3317393-5.0565034 0 0 1.683991 6.712018-2.2574022 8.2076764.4109663 1.4005214.7468584 2.8541124.9837303 4.3568899.2860585-1.5759101 1.3196225-3.439173 4.2876405-4.7167281 0 0 .4375011 7.1715236-3.9582203 7.6931596.1236135 1.8820314.0919012 3.815191-.1430292 5.7820045.8174023-1.7014652 2.6657798-3.6883416 6.8692854-3.6876944 0 0-2.6424809 7.3236135-7.254364 6.1263101-.1507955.7449168-.3313618 1.4930696-.5442877 2.2438112-.1876854.6633708-.4148494 1.3008539-.660782 1.9247461 1.3202697-1.2018337 3.5071281-2.1564405 7.0116674-1.2374292 0 0-4.3122337 6.2635146-8.4277213 4.1594966-.9157753 1.5681438-2.0030562 2.9835506-3.1854742 4.2624 1.6723416-.6756674 4.0980135-.8180494 7.0906247 1.3629843 0 0-6.2693393 4.2391011-9.3422022.8258157-.9889079.864-2.0075865 1.643218-3.0217348 2.3473618 1.7616539-.2990022 4.1200179.0789573 6.5735191 2.7525034 0 0-6.9611865 2.9110651-9.30984272-1.0154427-4.15108315 2.4043146-7.62714607 3.469591-7.70351461 3.4922427z" fill="url(#b)" mask="url(#e)" transform="translate(42.067416 .561568)"/><path d="m36 37.5-8.8167788 4.6352549 1.6838549-9.8176274-7.1329238-6.9528824 9.8574583-1.4323726 4.4083894-8.9323725 4.4083894 8.9323725 9.8574583 1.4323726-7.1329238 6.9528824 1.6838549 9.8176274z" fill="url(#c)"/></g></svg>