<?xml version="1.0" encoding="iso-8859-1"?>
<!-- Generator: Adobe Illustrator 19.0.0, SVG Export Plug-In . SVG Version: 6.00 Build 0)  -->
<svg version="1.1" id="Layer_1" xmlns="http://www.w3.org/2000/svg" xmlns:xlink="http://www.w3.org/1999/xlink" x="0px" y="0px"
	 viewBox="0 0 453.35 453.35" style="enable-background:new 0 0 453.35 453.35;" xml:space="preserve">
<g>
	<rect x="76.75" y="289.515" style="fill:#F4B5A8;" width="49.37" height="36"/>
	<rect x="160.24" y="249.015" style="fill:#F9A18A;" width="49.38" height="76.5"/>
	<rect x="243.74" y="205.525" style="fill:#ED8C85;" width="49.37" height="119.99"/>
	<rect x="327.23" y="33.335" style="fill:#ED7D6E;" width="49.38" height="292.18"/>
	<path style="fill:#F2F2F2;" d="M50.16,159.485H325.7h1.53v166.03h49.38v-166.03h1.66h24.93v200.02H50.16V159.485z M293.11,325.515
		v-119.99h-49.37v119.99H293.11z M209.62,325.515v-76.5h-49.38v76.5H209.62z M126.12,325.515v-36H76.75v36H126.12z"/>
	<path style="fill:#88C5FC;" d="M426.2,154.765v227.74H27.16v-227.74c0-10.1,8.18-18.28,18.28-18.28h281.79v23H50.16v200.02H403.2
		v-200.02h-26.59v-23h31.31c5.05,0,9.61,2.04,12.92,5.35c1.86,1.86,3.33,4.12,4.25,6.64c0.11,0.28,0.2,0.57,0.29,0.85
		c0.18,0.57,0.33,1.16,0.45,1.75C426.07,152.265,426.2,153.505,426.2,154.765z"/>
	<path style="fill:#70B1E0;" d="M426.2,382.505h27.15c0,20.72-16.79,37.51-37.5,37.51H37.5c-10.36,0-19.73-4.2-26.52-10.99
		C4.2,402.245,0,392.865,0,382.505h27.16H426.2z"/>
	<g>
		<path style="opacity:0.23;fill:#F2F2F2;enable-background:new    ;" d="M426.2,154.765v227.74H238.38l11.97-23l76.88-147.73
			l27.21-52.29l22.17-41.87v18.87h31.31c5.05,0,9.61,2.04,12.92,5.35c1.86,1.86,3.33,4.12,4.25,6.64c0.11,0.28,0.2,0.57,0.29,0.85
			c0.18,0.57,0.33,1.16,0.45,1.75C426.07,152.265,426.2,153.505,426.2,154.765z"/>
		<path style="opacity:0.23;fill:#F2F2F2;enable-background:new    ;" d="M117.28,136.485v19.53l-1.8,3.47l-7.17,13.77l-11.83,22.74
			l-25.96,49.88l-12.39,23.82l-7.97,15.31l-15.97,30.69l-7.03,13.51v-174.44c0-10.1,8.19-18.28,18.28-18.28L117.28,136.485
			L117.28,136.485z"/>
		<polygon style="opacity:0.23;fill:#F2F2F2;enable-background:new    ;" points="353.5,33.335 331.19,76.205 327.23,83.815 
			327.23,33.335 		"/>
	</g>
	<g>
		<path style="opacity:0.23;fill:#F2F2F2;enable-background:new    ;" d="M453.35,382.505c0,11.27-4.98,21.39-12.85,28.26H318.92
			l14.7-28.26H453.35z"/>
	</g>
</g>
<g>
</g>
<g>
</g>
<g>
</g>
<g>
</g>
<g>
</g>
<g>
</g>
<g>
</g>
<g>
</g>
<g>
</g>
<g>
</g>
<g>
</g>
<g>
</g>
<g>
</g>
<g>
</g>
<g>
</g>
</svg>
