<svg width="84" height="186" viewBox="0 0 84 186" fill="none" xmlns="http://www.w3.org/2000/svg">
<circle cx="82.6156" cy="184.154" r="1.38462" transform="rotate(-180 82.6156 184.154)" fill="#1F95F2"/>
<circle cx="62.3078" cy="184.154" r="1.38462" transform="rotate(-180 62.3078 184.154)" fill="#1F95F2"/>
<circle cx="41.9999" cy="184.154" r="1.38462" transform="rotate(-180 41.9999 184.154)" fill="#1F95F2"/>
<circle cx="21.6925" cy="184.154" r="1.38462" transform="rotate(-180 21.6925 184.154)" fill="#1F95F2"/>
<circle cx="1.38467" cy="184.154" r="1.38462" transform="rotate(-180 1.38467 184.154)" fill="#1F95F2"/>
<circle cx="82.6156" cy="163.847" r="1.38462" transform="rotate(-180 82.6156 163.847)" fill="#1F95F2"/>
<circle cx="62.3078" cy="163.847" r="1.38462" transform="rotate(-180 62.3078 163.847)" fill="#1F95F2"/>
<circle cx="42.0004" cy="163.847" r="1.38462" transform="rotate(-180 42.0004 163.847)" fill="#1F95F2"/>
<circle cx="21.6925" cy="163.847" r="1.38462" transform="rotate(-180 21.6925 163.847)" fill="#1F95F2"/>
<circle cx="1.38467" cy="163.847" r="1.38462" transform="rotate(-180 1.38467 163.847)" fill="#1F95F2"/>
<circle cx="82.6156" cy="143.539" r="1.38462" transform="rotate(-180 82.6156 143.539)" fill="#1F95F2"/>
<circle cx="62.3078" cy="143.539" r="1.38462" transform="rotate(-180 62.3078 143.539)" fill="#1F95F2"/>
<circle cx="42.0004" cy="143.539" r="1.38462" transform="rotate(-180 42.0004 143.539)" fill="#1F95F2"/>
<circle cx="21.6925" cy="143.539" r="1.38462" transform="rotate(-180 21.6925 143.539)" fill="#1F95F2"/>
<circle cx="1.38467" cy="143.539" r="1.38462" transform="rotate(-180 1.38467 143.539)" fill="#1F95F2"/>
<circle cx="82.6156" cy="123.231" r="1.38462" transform="rotate(-180 82.6156 123.231)" fill="#1F95F2"/>
<circle cx="62.3078" cy="123.231" r="1.38462" transform="rotate(-180 62.3078 123.231)" fill="#1F95F2"/>
<circle cx="42.0004" cy="123.231" r="1.38462" transform="rotate(-180 42.0004 123.231)" fill="#1F95F2"/>
<circle cx="21.6925" cy="123.231" r="1.38462" transform="rotate(-180 21.6925 123.231)" fill="#1F95F2"/>
<circle cx="1.38467" cy="123.231" r="1.38462" transform="rotate(-180 1.38467 123.231)" fill="#1F95F2"/>
<circle cx="82.6156" cy="102.923" r="1.38462" transform="rotate(-180 82.6156 102.923)" fill="#1F95F2"/>
<circle cx="62.3078" cy="102.923" r="1.38462" transform="rotate(-180 62.3078 102.923)" fill="#1F95F2"/>
<circle cx="42.0004" cy="102.923" r="1.38462" transform="rotate(-180 42.0004 102.923)" fill="#1F95F2"/>
<circle cx="21.6925" cy="102.923" r="1.38462" transform="rotate(-180 21.6925 102.923)" fill="#1F95F2"/>
<circle cx="1.38467" cy="102.923" r="1.38462" transform="rotate(-180 1.38467 102.923)" fill="#1F95F2"/>
<circle cx="82.6156" cy="82.6156" r="1.38462" transform="rotate(-180 82.6156 82.6156)" fill="#1F95F2"/>
<circle cx="62.3078" cy="82.6156" r="1.38462" transform="rotate(-180 62.3078 82.6156)" fill="#1F95F2"/>
<circle cx="42.0004" cy="82.6156" r="1.38462" transform="rotate(-180 42.0004 82.6156)" fill="#1F95F2"/>
<circle cx="21.6925" cy="82.6156" r="1.38462" transform="rotate(-180 21.6925 82.6156)" fill="#1F95F2"/>
<circle cx="1.38467" cy="82.6156" r="1.38462" transform="rotate(-180 1.38467 82.6156)" fill="#1F95F2"/>
<circle cx="82.6156" cy="62.3081" r="1.38462" transform="rotate(-180 82.6156 62.3081)" fill="#1F95F2"/>
<circle cx="62.3078" cy="62.3077" r="1.38462" transform="rotate(-180 62.3078 62.3077)" fill="#1F95F2"/>
<circle cx="42.0004" cy="62.3077" r="1.38462" transform="rotate(-180 42.0004 62.3077)" fill="#1F95F2"/>
<circle cx="21.6925" cy="62.3077" r="1.38462" transform="rotate(-180 21.6925 62.3077)" fill="#1F95F2"/>
<circle cx="1.38467" cy="62.3077" r="1.38462" transform="rotate(-180 1.38467 62.3077)" fill="#1F95F2"/>
<circle cx="82.6156" cy="42.0002" r="1.38462" transform="rotate(-180 82.6156 42.0002)" fill="#1F95F2"/>
<circle cx="62.3078" cy="41.9999" r="1.38462" transform="rotate(-180 62.3078 41.9999)" fill="#1F95F2"/>
<circle cx="42.0004" cy="41.9999" r="1.38462" transform="rotate(-180 42.0004 41.9999)" fill="#1F95F2"/>
<circle cx="21.6925" cy="41.9999" r="1.38462" transform="rotate(-180 21.6925 41.9999)" fill="#1F95F2"/>
<circle cx="1.38467" cy="41.9999" r="1.38462" transform="rotate(-180 1.38467 41.9999)" fill="#1F95F2"/>
<circle cx="82.6156" cy="21.6924" r="1.38462" transform="rotate(-180 82.6156 21.6924)" fill="#1F95F2"/>
<circle cx="62.3078" cy="21.6921" r="1.38462" transform="rotate(-180 62.3078 21.6921)" fill="#1F95F2"/>
<circle cx="42.0004" cy="21.6921" r="1.38462" transform="rotate(-180 42.0004 21.6921)" fill="#1F95F2"/>
<circle cx="21.6925" cy="21.6921" r="1.38462" transform="rotate(-180 21.6925 21.6921)" fill="#1F95F2"/>
<circle cx="1.38467" cy="21.6921" r="1.38462" transform="rotate(-180 1.38467 21.6921)" fill="#1F95F2"/>
<circle cx="82.6156" cy="1.38461" r="1.38462" transform="rotate(-180 82.6156 1.38461)" fill="#1F95F2"/>
<circle cx="62.3078" cy="1.38461" r="1.38462" transform="rotate(-180 62.3078 1.38461)" fill="#1F95F2"/>
<circle cx="42.0004" cy="1.38461" r="1.38462" transform="rotate(-180 42.0004 1.38461)" fill="#1F95F2"/>
<circle cx="21.6925" cy="1.38461" r="1.38462" transform="rotate(-180 21.6925 1.38461)" fill="#1F95F2"/>
<circle cx="1.38467" cy="1.38461" r="1.38462" transform="rotate(-180 1.38467 1.38461)" fill="#1F95F2"/>
</svg>
