<svg width="98" height="31" viewBox="0 0 98 31" fill="none" xmlns="http://www.w3.org/2000/svg">
<path d="M98 29.6819C89.8343 29.6819 89.8343 21.4306 81.6687 21.4306C73.503 21.4306 73.503 29.6819 65.3374 29.6819C57.1717 29.6819 57.1717 21.4306 49.006 21.4306C40.8404 21.4306 40.8404 29.6819 32.6747 29.6819C24.509 29.6819 24.509 21.4306 16.3434 21.4306C8.17772 21.4306 8.16566 29.6819 0 29.6819" stroke="#E98C95" stroke-miterlimit="10"/>
<path d="M98 19.4666C89.8343 19.4666 89.8343 11.2153 81.6687 11.2153C73.503 11.2153 73.503 19.4666 65.3374 19.4666C57.1717 19.4666 57.1717 11.2153 49.006 11.2153C40.8404 11.2153 40.8404 19.4666 32.6747 19.4666C24.509 19.4666 24.509 11.2153 16.3434 11.2153C8.17772 11.2153 8.16566 19.4666 0 19.4666" stroke="#E98C95" stroke-miterlimit="10"/>
<path d="M98 9.25132C89.8343 9.25132 89.8343 1 81.6687 1C73.503 1 73.503 9.25132 65.3374 9.25132C57.1717 9.25132 57.1717 1 49.006 1C40.8404 1 40.8404 9.25132 32.6747 9.25132C24.509 9.25132 24.509 1 16.3434 1C8.17772 1 8.16566 9.25132 0 9.25132" stroke="#E98C95" stroke-miterlimit="10"/>
</svg>
