<?xml version="1.0" encoding="UTF-8"?>
<svg viewBox="0 0 1369.5406 297.13855" xmlns="http://www.w3.org/2000/svg" xmlns:xlink="http://www.w3.org/1999/xlink">
 <defs>
  <clipPath id="r">
   <path d="m3852.2 176.23c-202.06-2.6317-390.59 161.02-415.88 361.69-27.706 185.47 84.242 381.84 260.11 448.98 160.77 65.86 360.91 22.536 474.62-110.52 107.93-120.84 140.48-306.13 69.234-453.43-67.626-147.64-224.63-250.89-388.08-246.72z"/>
  </clipPath>
  <clipPath id="q">
   <path transform="matrix(.60651 -.79508 .79508 .60651 1268.6 3016.1)" d="m3852.2 176.23c-202.06-2.6317-390.59 161.02-415.88 361.69-27.706 185.47 84.242 381.84 260.11 448.98 160.77 65.86 360.91 22.536 474.62-110.52 107.93-120.84 140.48-306.13 69.234-453.43-67.626-147.64-224.63-250.89-388.08-246.72z"/>
  </clipPath>
  <filter id="e">
   <feTurbulence baseFrequency=".143" numOctaves="5" type="fractalNoise"/>
   <feColorMatrix values="1 0 0 0 0 0 1 0 0 0 0 0 1 0 0 0 0 0 5 -3"/>
   <feComposite in2="SourceAlpha" operator="in"/>
   <feMorphology operator="dilate" radius="2.657" result="result3"/>
   <feTurbulence baseFrequency=".12077" numOctaves="2"/>
   <feDisplacementMap in="result3" result="result4" scale="10.04464" xChannelSelector="R"/>
   <feFlood flood-color="#fff"/>
   <feComposite in2="result4" operator="in" result="result2"/>
   <feComposite in="result2" in2="SourceGraphic"/>
  </filter>
  <filter id="d">
   <feGaussianBlur in="SourceAlpha" result="result1" stdDeviation="2.15264"/>
   <feSpecularLighting result="result0" specularConstant="2" specularExponent="18.06388" surfaceScale="5">
    <feDistantLight azimuth="225" elevation="24"/>
   </feSpecularLighting>
   <feComposite in2="SourceAlpha" operator="in" result="result6"/>
   <feMorphology operator="dilate" radius="5.71429"/>
   <feGaussianBlur result="result11" stdDeviation="5.72371"/>
   <feDiffuseLighting diffuseConstant="2.01" in="result1" result="result3" surfaceScale="5">
    <feDistantLight azimuth="225" elevation="25"/>
   </feDiffuseLighting>
   <feBlend in="result3" in2="SourceGraphic" mode="multiply" result="result7"/>
   <feComposite in="result7" in2="SourceAlpha" operator="in"/>
   <feBlend in="result6" mode="lighten" result="result9"/>
   <feComposite in="result11"/>
  </filter>
  <filter id="o">
   <feGaussianBlur stdDeviation=".10081"/>
  </filter>
  <filter id="c" x="0" y="0" width="1" height="1">
   <feTurbulence baseFrequency="0.16999999999999998 0.26873614190687362" result="result1" type="fractalNoise"/>
   <feColorMatrix in="SourceGraphic" result="result0" type="luminanceToAlpha"/>
   <feColorMatrix result="result2" values="1 0 0 0 0 0 1 0 0 0 0 0 1 0 0 0 0 0 0.8 0"/>
   <feComposite in="result1" in2="result2"/>
   <feColorMatrix values="1 0 0 0 0 0 1 0 0 0 0 0 1 0 0 0 0 0 20 -14"/>
   <feComposite in="SourceGraphic" operator="out"/>
  </filter>
  <filter id="b" x="-.39487" y="-.14808" width="1.7897" height="1.2962">
   <feGaussianBlur stdDeviation="11.16866"/>
  </filter>
  <filter id="p" x="-.64946" y="-.65518" width="2.2989" height="2.3104">
   <feGaussianBlur stdDeviation="108.70662"/>
  </filter>
  <linearGradient id="a">
   <stop stop-color="#a40" offset="0"/>
   <stop stop-color="#a40" stop-opacity="0" offset="1"/>
  </linearGradient>
  <linearGradient id="j" x1="3114.5" x2="3123.7" gradientUnits="userSpaceOnUse">
   <stop stop-color="#3e300b" offset="0"/>
   <stop stop-color="#ffd752" offset="1"/>
  </linearGradient>
  <linearGradient id="i" x1="2213.7" x2="2223.9" gradientTransform="matrix(2.7797 -1.6353 1.6353 2.7797 -6453 -2751.8)" gradientUnits="userSpaceOnUse">
   <stop stop-color="#382b09" offset="0"/>
   <stop stop-color="#e1b440" offset="1"/>
  </linearGradient>
  <linearGradient id="n" x1="3586.5" x2="3678" y1="368.12" y2="294.58" gradientUnits="userSpaceOnUse" xlink:href="#a"/>
  <linearGradient id="m" x1="3672.4" x2="3703.4" y1="355.1" y2="362.69" gradientUnits="userSpaceOnUse" xlink:href="#a"/>
  <linearGradient id="l" x1="3691.4" x2="3640.5" y1="320.52" y2="529.31" gradientUnits="userSpaceOnUse" xlink:href="#a"/>
  <linearGradient id="k" x1="3682.9" x2="3716.5" y1="366.34" y2="374" gradientUnits="userSpaceOnUse" xlink:href="#a"/>
  <radialGradient id="h" cx="1802" cy="336.14" r="414.55" gradientTransform="matrix(-2.3982 -.71086 .42418 -1.431 5981.1 2166.6)" gradientUnits="userSpaceOnUse">
   <stop stop-color="#e58620" offset="0"/>
   <stop stop-color="#e58620" offset=".32643"/>
   <stop stop-color="#d67c1c" offset=".45799"/>
   <stop stop-color="#520" offset="1"/>
  </radialGradient>
  <radialGradient id="g" cx="3855.2" cy="592.11" r="369.84" gradientTransform="matrix(-.92856 1.282 -1.7069 -1.2364 8445.6 -3613.5)" gradientUnits="userSpaceOnUse">
   <stop stop-color="#e58620" offset="0"/>
   <stop stop-color="#e58620" offset=".49831"/>
   <stop stop-color="#d67c1c" offset=".56626"/>
   <stop stop-color="#520" stop-opacity="0" offset="1"/>
  </radialGradient>
  <radialGradient id="f" cx="3631.8" cy="275.57" r="37.821" gradientTransform="matrix(1.1139 -1.1441 1.7562 1.7099 -897.72 3960.8)" gradientUnits="userSpaceOnUse">
   <stop stop-color="#9e832e" offset="0"/>
   <stop stop-color="#3e300b" offset="1"/>
  </radialGradient>
 </defs>
 <g transform="matrix(.35326 0 0 .35326 -221.25 246.34)">
  <path d="m4503.2-263.19c0 224.65-182.33 406.98-406.98 406.98s-406.98-182.33-406.98-406.98 182.33-406.98 406.98-406.98 406.98 182.33 406.98 406.98z" fill="#e58620"/>
  <path transform="matrix(.98014 0 0 .98014 81.337 -5.226)" d="m4503.2-263.19c0 224.65-182.33 406.98-406.98 406.98s-406.98-182.33-406.98-406.98 182.33-406.98 406.98-406.98 406.98 182.33 406.98 406.98z" fill="#fff"/>
  <path d="m4309.3-570.41c46.031 26.489 85.981 65.555 103.48 111.36 2.977 8.4944 2.8957 13.127-5.255 17.608l-269.92 148.21c-4.2258 0.6447-11.679-1.6162-8.8705-12.024l159.27-262.69c6.9546-9.0145 13.097-7.1495 21.29-2.4675zm-585.68 276.3c-0.075-53.108 13.782-107.24 44.704-145.3 5.8679-6.8253 9.9207-9.0714 17.877-4.253l263.31 159.65c2.6712 3.3373 4.4396 10.922-5.978 13.694l-307.13-6.5926c-11.284-1.5156-12.74-7.7679-12.782-17.204zm34.458 190.44c-26.619-45.956-41.684-99.763-33.933-148.18 1.6691-8.8448 4.0559-12.816 13.355-12.622l307.86 6.6082c3.9819 1.5546 9.3058 7.2389 1.6699 14.848l-269.28 147.86c-10.53 4.3295-14.917-0.35704-19.671-8.5078zm125.06 147.7c-46.031-26.489-85.981-65.555-103.48-111.36-2.977-8.4944-2.8957-13.127 5.255-17.608l269.92-148.21c4.2258-0.6447 11.679 1.6162 8.8705 12.024l-159.27 262.69c-6.9546 9.0145-13.097 7.1495-21.29 2.4675zm182.16 65.38c-53.108 0.0752-107.24-13.782-145.3-44.704-6.8253-5.8679-9.0714-9.9207-4.2531-17.877l159.65-263.31c3.3372-2.6712 10.922-4.4396 13.694 5.978l-6.5925 307.13c-1.5156 11.284-7.7679 12.74-17.204 12.782zm190.44-34.458c-45.956 26.619-99.763 41.684-148.18 33.933-8.8448-1.6691-12.816-4.0559-12.622-13.355l6.6082-307.86c1.5545-3.982 7.2389-9.3058 14.848-1.67l147.86 269.28c4.3295 10.53-0.357 14.917-8.5078 19.671zm147.7-125.06c-26.489 46.031-65.555 85.981-111.36 103.48-8.4944 2.977-13.127 2.8957-17.608-5.255l-148.21-269.92c-0.6447-4.2258 1.6162-11.679 12.024-8.8705l262.69 159.27c9.0145 6.9546 7.1495 13.097 2.4675 21.29zm65.38-182.16c0.075 53.108-13.782 107.24-44.704 145.3-5.8679 6.8253-9.9208 9.0714-17.877 4.253l-263.31-159.65c-2.6712-3.3373-4.4395-10.922 5.9781-13.694l307.13 6.5926c11.284 1.5156 12.74 7.7679 12.782 17.204zm-34.458-190.44c26.619 45.956 41.684 99.763 33.933 148.18-1.6691 8.8448-4.0559 12.816-13.355 12.622l-307.86-6.6082c-3.9819-1.5546-9.3058-7.2389-1.6699-14.848l269.28-147.86c10.53-4.3295 14.917 0.35704 19.671 8.5078zm-307.22-213.08c53.108-0.0752 107.24 13.782 145.3 44.704 6.8253 5.8679 9.0714 9.9207 4.2531 17.877l-159.65 263.31c-3.3372 2.6712-10.922 4.4396-13.694-5.978l6.5925-307.13c1.5156-11.284 7.7679-12.74 17.204-12.782zm-190.44 34.458c45.956-26.619 99.763-41.684 148.18-33.933 8.8449 1.6691 12.816 4.0559 12.622 13.355l-6.6082 307.86c-1.5546 3.982-7.239 9.3058-14.848 1.67l-147.86-269.28c-4.3295-10.53 0.3571-14.917 8.5079-19.671zm-147.7 125.06c26.489-46.031 65.555-85.981 111.36-103.48 8.4944-2.977 13.127-2.8957 17.608 5.255l148.21 269.92c0.6447 4.2258-1.6162 11.679-12.024 8.8705l-262.69-159.27c-9.0145-6.9546-7.1495-13.097-2.4675-21.29z" fill="#fcb245" stroke="#fff" stroke-linejoin="round" stroke-width="6"/>
 </g>
 <g transform="matrix(.35326 0 0 .35326 -480.15 7.9354)">
  <path d="m1380.3 266.68c-12.739 40.278-19.611 83.164-19.611 127.65 0 233.54 189.34 422.84 422.88 422.84 189.04 0 349.09-124.04 403.23-295.17m-0.1023-0.0533c-23.814 75.218-223.6 79.051-446.25 8.5625s-383.85-188.59-360.03-263.81" fill="url(#h)" stroke="#e58620" stroke-linejoin="round" stroke-width="3"/>
  <path d="m1536.6 207.68c79.719-0.39808 182.22 16.326 290.06 50.469 222.65 70.489 383.81 188.59 360 263.81s-223.6 79.051-446.25 8.5625-383.85-188.59-360.03-263.81c12.279-38.784 71.356-58.607 156.22-59.031z" fill="#fff" stroke="#e58620" stroke-linejoin="round" stroke-width="3"/>
  <path d="m1560.7 225.86c71.962-0.3593 164.49 14.735 261.84 45.552 200.98 63.622 346.47 170.22 324.97 238.11s-201.85 71.351-402.83 7.7284-346.49-170.22-325-238.11c11.084-35.006 64.413-52.898 141.02-53.281z" fill="#f9f9f9"/>
  <path d="m2038.5 364.18c39.7 23.59 71.497 49.275 80.674 69.827 1.4457 3.7239 0.6012 5.1993-7.9462 3.9954l-283.02-39.928c-4.1536-1.1683-10.917-4.3303-6.5057-6.7891l196-33.244c8.1517-0.65561 13.726 1.9511 20.797 6.1389zm-606.62-101.32c8.7157-17.241 30.944-30.272 66.855-32.531 6.749-0.30009 11.002 0.29269 17.824 4.4477l225.75 137.57c2.0061 1.9525 2.4446 4.9876-7.9911 2.4909l-293.05-102.24c-10.556-4.1691-10.916-6.6705-9.3943-9.7428zm1.4886 72.967c-17.889-23.573-23.414-45.927-7.9786-59.097 3.0621-2.3233 6.005-2.8328 14.878 0.26116l293.74 102.48c3.5562 1.8017 7.7143 5.3797-0.8576 5.3578l-282.35-39.834c-10.801-2.0285-14.227-4.9777-17.431-9.1693zm95.333 88.641c-39.7-23.59-71.497-49.275-80.674-69.827-1.4456-3.724-0.6012-5.1993 7.9462-3.9953l283.02 39.928c4.1537 1.1683 10.917 4.3303 6.5056 6.7891l-196 33.244c-8.1519 0.6556-13.726-1.9511-20.797-6.1389zm163.63 80.564c-50.874-17.285-100.42-39.42-131.75-61.848-5.5656-4.1268-7.0459-6.1726-1.1152-7.1813l196.47-33.323c3.6379 0.22175 11.194 2.1206 12.126 6.4012l-57.133 97.415c-3.3185 3.164-9.5474 1.5983-18.591-1.4636zm188.09 50.9c-48.416-6.3488-102.44-19.002-147.53-37.296-8.1942-3.4238-11.603-5.492-9.8775-8.443l57.269-97.646c2.1476-0.7842 8.4724-0.65735 14.497 4.2982l97.044 135.48c2.4039 4.8247-2.8102 4.7195-11.403 3.6039zm162.14 7.5969c-32.985 6.2885-77.009 6.5068-123.77-2.7512-8.6276-1.8035-13.051-3.3398-15.994-7.4425l-97.274-135.8c0.081-1.5801 3.4801-3.2591 12.983 1.0434l225.22 137.25c7.4824 5.1926 4.68 6.576-1.1595 7.7057zm92.755-37.742c-8.7157 17.241-30.944 30.272-66.855 32.531-6.749 0.3001-11.002-0.29271-17.824-4.4477l-225.75-137.57c-2.0061-1.9525-2.4444-4.9876 7.9912-2.4909l293.05 102.24c10.556 4.1691 10.916 6.6706 9.3943 9.7428zm-1.4885-72.967c17.889 23.573 23.414 45.927 7.9786 59.097-3.062 2.3233-6.005 2.8328-14.878-0.26118l-293.74-102.48c-3.5561-1.8017-7.7142-5.3797 0.8578-5.3578l282.35 39.834c10.801 2.0285 14.227 4.9777 17.431 9.1693zm-258.97-169.21c50.874 17.285 100.42 39.42 131.75 61.848 5.5655 4.1267 7.0459 6.1726 1.1152 7.1813l-196.47 33.323c-3.638-0.22175-11.194-2.1206-12.126-6.4012l57.133-97.415c3.3185-3.164 9.5473-1.5983 18.591 1.4636zm-188.09-50.9c48.416 6.3488 102.44 19.002 147.53 37.296 8.1944 3.4238 11.603 5.492 9.8776 8.443l-57.269 97.646c-2.1477 0.78416-8.4725 0.65732-14.497-4.2982l-97.044-135.48c-2.4039-4.8247 2.8103-4.7194 11.403-3.6039zm-162.14-7.5969c32.985-6.2885 77.009-6.5067 123.77 2.7512 8.6275 1.8035 13.051 3.3398 15.994 7.4425l97.274 135.8c-0.082 1.58-3.4802 3.2591-12.983-1.0434l-225.22-137.25c-7.4824-5.1926-4.68-6.576 1.1595-7.7057z" fill="#fcb245" stroke="#fff" stroke-linejoin="round" stroke-width="6"/>
  <g transform="translate(333.98 482.22)" opacity=".5" stroke="#fff" stroke-linejoin="round" stroke-width="6">
   <path d="m1704.5-118.04c39.7 23.59 71.497 49.275 80.674 69.827 1.4457 3.7239 0.6012 5.1993-7.9462 3.9954l-283.02-39.928c-4.1536-1.1683-10.917-4.3303-6.5057-6.7891l196-33.244c8.1517-0.65561 13.726 1.9511 20.797 6.1389zm-606.62-101.32c8.7157-17.241 30.944-30.272 66.855-32.531 6.749-0.30009 11.002 0.29269 17.824 4.4477l225.75 137.57c2.0061 1.9525 2.4446 4.9876-7.9911 2.4909l-293.05-102.24c-10.556-4.1691-10.916-6.6705-9.3943-9.7428zm1.4886 72.967c-17.889-23.573-23.414-45.927-7.9786-59.097 3.0621-2.3233 6.005-2.8328 14.878 0.26116l293.74 102.48c3.5562 1.8017 7.7143 5.3797-0.8576 5.3578l-282.35-39.834c-10.801-2.0285-14.227-4.9777-17.431-9.1693zm95.333 88.641c-39.7-23.59-71.497-49.275-80.674-69.827-1.4456-3.724-0.6012-5.1993 7.9462-3.9953l283.02 39.928c4.1537 1.1683 10.917 4.3303 6.5056 6.7891l-196 33.244c-8.1519 0.6556-13.726-1.9511-20.797-6.1389zm163.63 80.564c-50.874-17.285-100.42-39.42-131.75-61.848-5.5656-4.1268-7.0459-6.1726-1.1152-7.1813l196.47-33.323c3.6379 0.22175 11.194 2.1206 12.126 6.4012l-57.133 97.415c-3.3185 3.164-9.5474 1.5983-18.591-1.4636zm188.09 50.9c-48.416-6.3488-102.44-19.002-147.53-37.296-8.1942-3.4238-11.603-5.492-9.8775-8.443l57.269-97.646c2.1476-0.7842 8.4724-0.65735 14.497 4.2982l97.044 135.48c2.4039 4.8247-2.8102 4.7195-11.403 3.6039zm162.14 7.5969c-32.985 6.2885-77.009 6.5068-123.77-2.7512-8.6276-1.8035-13.051-3.3398-15.994-7.4425l-97.274-135.8c0.081-1.5801 3.4801-3.2591 12.983 1.0434l225.22 137.25c7.4824 5.1926 4.68 6.576-1.1595 7.7057zm92.755-37.742c-8.7157 17.241-30.944 30.272-66.855 32.531-6.749 0.3001-11.002-0.29271-17.824-4.4477l-225.75-137.57c-2.0061-1.9525-2.4444-4.9876 7.9912-2.4909l293.05 102.24c10.556 4.1691 10.916 6.6706 9.3943 9.7428zm-1.4885-72.967c17.889 23.573 23.414 45.927 7.9786 59.097-3.062 2.3233-6.005 2.8328-14.878-0.26118l-293.74-102.48c-3.5561-1.8017-7.7142-5.3797 0.8578-5.3578l282.35 39.834c10.801 2.0285 14.227 4.9777 17.431 9.1693zm-258.97-169.21c50.874 17.285 100.42 39.42 131.75 61.848 5.5655 4.1267 7.0459 6.1726 1.1152 7.1813l-196.47 33.323c-3.638-0.22175-11.194-2.1206-12.126-6.4012l57.133-97.415c3.3185-3.164 9.5473-1.5983 18.591 1.4636zm-188.09-50.9c48.416 6.3488 102.44 19.002 147.53 37.296 8.1944 3.4238 11.603 5.492 9.8776 8.443l-57.269 97.646c-2.1477 0.78416-8.4725 0.65732-14.497-4.2982l-97.044-135.48c-2.4039-4.8247 2.8103-4.7194 11.403-3.6039zm-162.14-7.5969c32.985-6.2885 77.009-6.5067 123.77 2.7512 8.6275 1.8035 13.051 3.3398 15.994 7.4425l97.274 135.8c-0.082 1.58-3.4802 3.2591-12.983-1.0434l-225.22-137.25c-7.4824-5.1926-4.68-6.576 1.1595-7.7057z" fill="#fff" filter="url(#d)" opacity=".25"/>
   <path d="m1704.5-118.04c39.7 23.59 71.497 49.275 80.674 69.827 1.4457 3.7239 0.6012 5.1993-7.9462 3.9954l-283.02-39.928c-4.1536-1.1683-10.917-4.3303-6.5057-6.7891l196-33.244c8.1517-0.65561 13.726 1.9511 20.797 6.1389zm-606.62-101.32c8.7157-17.241 30.944-30.272 66.855-32.531 6.749-0.30009 11.002 0.29269 17.824 4.4477l225.75 137.57c2.0061 1.9525 2.4446 4.9876-7.9911 2.4909l-293.05-102.24c-10.556-4.1691-10.916-6.6705-9.3943-9.7428zm1.4886 72.967c-17.889-23.573-23.414-45.927-7.9786-59.097 3.0621-2.3233 6.005-2.8328 14.878 0.26116l293.74 102.48c3.5562 1.8017 7.7143 5.3797-0.8576 5.3578l-282.35-39.834c-10.801-2.0285-14.227-4.9777-17.431-9.1693zm95.333 88.641c-39.7-23.59-71.497-49.275-80.674-69.827-1.4456-3.724-0.6012-5.1993 7.9463-3.9953l283.02 39.928c4.1537 1.1683 10.917 4.3303 6.5056 6.7891l-196 33.244c-8.152 0.6556-13.726-1.9511-20.797-6.1389zm163.63 80.564c-50.874-17.285-100.42-39.42-131.75-61.848-5.5656-4.1268-7.0459-6.1726-1.1152-7.1813l196.47-33.323c3.6379 0.22175 11.194 2.1206 12.126 6.4012l-57.133 97.415c-3.3185 3.164-9.5474 1.5983-18.591-1.4636zm188.09 50.9c-48.416-6.3488-102.44-19.002-147.53-37.296-8.1942-3.4238-11.603-5.492-9.8775-8.443l57.269-97.646c2.1476-0.7842 8.4724-0.65735 14.497 4.2982l97.044 135.48c2.4039 4.8247-2.8101 4.7195-11.402 3.6039zm162.14 7.5969c-32.985 6.2885-77.009 6.5068-123.77-2.7512-8.6276-1.8035-13.051-3.3398-15.994-7.4425l-97.274-135.8c0.081-1.5801 3.4801-3.2591 12.983 1.0434l225.22 137.25c7.4824 5.1926 4.68 6.576-1.1595 7.7057zm92.755-37.742c-8.7158 17.241-30.944 30.272-66.855 32.531-6.749 0.3001-11.002-0.29271-17.824-4.4477l-225.75-137.57c-2.0061-1.9525-2.4445-4.9876 7.9912-2.4909l293.05 102.24c10.556 4.1691 10.916 6.6706 9.3943 9.7428zm-1.4885-72.967c17.889 23.573 23.414 45.927 7.9786 59.097-3.062 2.3233-6.0051 2.8328-14.878-0.26118l-293.74-102.48c-3.5561-1.8017-7.7142-5.3797 0.8578-5.3578l282.35 39.834c10.801 2.0285 14.227 4.9777 17.431 9.1693zm-258.97-169.21c50.874 17.285 100.42 39.42 131.75 61.848 5.5655 4.1267 7.0459 6.1726 1.1152 7.1813l-196.47 33.323c-3.638-0.22175-11.195-2.1206-12.126-6.4012l57.133-97.415c3.3186-3.164 9.5473-1.5983 18.591 1.4636zm-188.09-50.9c48.416 6.3488 102.44 19.002 147.53 37.296 8.1944 3.4238 11.603 5.492 9.8776 8.443l-57.269 97.646c-2.1477 0.78416-8.4725 0.65732-14.497-4.2982l-97.044-135.48c-2.4039-4.8247 2.8103-4.7194 11.403-3.6039zm-162.14-7.5969c32.985-6.2885 77.009-6.5067 123.77 2.7512 8.6275 1.8035 13.051 3.3398 15.994 7.4425l97.274 135.8c-0.082 1.58-3.4802 3.2591-12.983-1.0434l-225.22-137.25c-7.4825-5.1926-4.68-6.576 1.1595-7.7057z" fill="#fcb245" filter="url(#e)" opacity=".75"/>
  </g>
  <path d="m1380.3 266.68c-12.739 40.278-19.611 83.164-19.611 127.65 0 233.54 189.34 422.84 422.88 422.84 189.04 0 349.09-124.04 403.23-295.17m-0.1023-0.0533c-23.814 75.218-223.6 79.051-446.25 8.5625s-383.85-188.59-360.03-263.81" fill="#d35f5f" filter="url(#c)" opacity=".25"/>
 </g>
 <g transform="matrix(.20769 -.28576 .28576 .20769 18.643 574.99)">
  <path d="m1380.3 266.68c-12.739 40.278-19.611 83.164-19.611 127.65 0 233.54 189.34 422.84 422.88 422.84 189.04 0 349.09-124.04 403.23-295.17m-0.1023-0.0533c-23.814 75.218-223.6 79.051-446.25 8.5625s-383.85-188.59-360.03-263.81" fill="#e58620" stroke="#e58620" stroke-linejoin="round" stroke-width="3"/>
  <path d="m1536.6 207.68c79.719-0.39808 182.22 16.326 290.06 50.469 222.65 70.489 383.81 188.59 360 263.81s-223.6 79.051-446.25 8.5625-383.85-188.59-360.03-263.81c12.279-38.784 71.356-58.607 156.22-59.031z" fill="#fff" stroke="#e58620" stroke-linejoin="round" stroke-width="3"/>
  <path d="m1560.7 225.86c71.962-0.3593 164.49 14.735 261.84 45.552 200.98 63.622 346.47 170.22 324.97 238.11s-201.85 71.351-402.83 7.7284-346.49-170.22-325-238.11c11.084-35.006 64.413-52.898 141.02-53.281z" fill="#f9f9f9"/>
  <path d="m2038.5 364.18c39.7 23.59 71.497 49.275 80.674 69.827 1.4457 3.7239 0.6012 5.1993-7.9462 3.9954l-283.02-39.928c-4.1536-1.1683-10.917-4.3303-6.5057-6.7891l196-33.244c8.1517-0.65561 13.726 1.9511 20.797 6.1389zm-606.62-101.32c8.7157-17.241 30.944-30.272 66.855-32.531 6.749-0.30009 11.002 0.29269 17.824 4.4477l225.75 137.57c2.0061 1.9525 2.4446 4.9876-7.9911 2.4909l-293.05-102.24c-10.556-4.1691-10.916-6.6705-9.3943-9.7428zm1.4886 72.967c-17.889-23.573-23.414-45.927-7.9786-59.097 3.0621-2.3233 6.005-2.8328 14.878 0.26116l293.74 102.48c3.5562 1.8017 7.7143 5.3797-0.8576 5.3578l-282.35-39.834c-10.801-2.0285-14.227-4.9777-17.431-9.1693zm95.333 88.641c-39.7-23.59-71.497-49.275-80.674-69.827-1.4456-3.724-0.6012-5.1993 7.9462-3.9953l283.02 39.928c4.1537 1.1683 10.917 4.3303 6.5056 6.7891l-196 33.244c-8.1519 0.6556-13.726-1.9511-20.797-6.1389zm163.63 80.564c-50.874-17.285-100.42-39.42-131.75-61.848-5.5656-4.1268-7.0459-6.1726-1.1152-7.1813l196.47-33.323c3.6379 0.22175 11.194 2.1206 12.126 6.4012l-57.133 97.415c-3.3185 3.164-9.5474 1.5983-18.591-1.4636zm188.09 50.9c-48.416-6.3488-102.44-19.002-147.53-37.296-8.1942-3.4238-11.603-5.492-9.8775-8.443l57.269-97.646c2.1476-0.7842 8.4724-0.65735 14.497 4.2982l97.044 135.48c2.4039 4.8247-2.8102 4.7195-11.403 3.6039zm162.14 7.5969c-32.985 6.2885-77.009 6.5068-123.77-2.7512-8.6276-1.8035-13.051-3.3398-15.994-7.4425l-97.274-135.8c0.081-1.5801 3.4801-3.2591 12.983 1.0434l225.22 137.25c7.4824 5.1926 4.68 6.576-1.1595 7.7057zm92.755-37.742c-8.7157 17.241-30.944 30.272-66.855 32.531-6.749 0.3001-11.002-0.29271-17.824-4.4477l-225.75-137.57c-2.0061-1.9525-2.4444-4.9876 7.9912-2.4909l293.05 102.24c10.556 4.1691 10.916 6.6706 9.3943 9.7428zm-1.4885-72.967c17.889 23.573 23.414 45.927 7.9786 59.097-3.062 2.3233-6.005 2.8328-14.878-0.26118l-293.74-102.48c-3.5561-1.8017-7.7142-5.3797 0.8578-5.3578l282.35 39.834c10.801 2.0285 14.227 4.9777 17.431 9.1693zm-258.97-169.21c50.874 17.285 100.42 39.42 131.75 61.848 5.5655 4.1267 7.0459 6.1726 1.1152 7.1813l-196.47 33.323c-3.638-0.22175-11.194-2.1206-12.126-6.4012l57.133-97.415c3.3185-3.164 9.5473-1.5983 18.591 1.4636zm-188.09-50.9c48.416 6.3488 102.44 19.002 147.53 37.296 8.1944 3.4238 11.603 5.492 9.8776 8.443l-57.269 97.646c-2.1477 0.78416-8.4725 0.65732-14.497-4.2982l-97.044-135.48c-2.4039-4.8247 2.8103-4.7194 11.403-3.6039zm-162.14-7.5969c32.985-6.2885 77.009-6.5067 123.77 2.7512 8.6275 1.8035 13.051 3.3398 15.994 7.4425l97.274 135.8c-0.082 1.58-3.4802 3.2591-12.983-1.0434l-225.22-137.25c-7.4824-5.1926-4.68-6.576 1.1595-7.7057z" fill="#fcb245" stroke="#fff" stroke-linejoin="round" stroke-width="6"/>
  <path d="m1380.3 266.68c-12.739 40.278-19.611 83.164-19.611 127.65 0 233.54 189.34 422.84 422.88 422.84 189.04 0 349.09-124.04 403.23-295.17m-0.1023-0.0533c-23.814 75.218-223.6 79.051-446.25 8.5625s-383.85-188.59-360.03-263.81" fill="#d35f5f" filter="url(#c)" opacity=".25"/>
 </g>
 <g transform="matrix(.20874 -.28499 .28499 .20874 224.21 578.68)" opacity=".5" stroke="#fff" stroke-linejoin="round" stroke-width="6">
  <path d="m1704.5-118.04c39.7 23.59 71.497 49.275 80.674 69.827 1.4457 3.7239 0.6012 5.1993-7.9462 3.9954l-283.02-39.928c-4.1536-1.1683-10.917-4.3303-6.5057-6.7891l196-33.244c8.1517-0.65561 13.726 1.9511 20.797 6.1389zm-606.62-101.32c8.7157-17.241 30.944-30.272 66.855-32.531 6.749-0.30009 11.002 0.29269 17.824 4.4477l225.75 137.57c2.0061 1.9525 2.4446 4.9876-7.9911 2.4909l-293.05-102.24c-10.556-4.1691-10.916-6.6705-9.3943-9.7428zm1.4886 72.967c-17.889-23.573-23.414-45.927-7.9786-59.097 3.0621-2.3233 6.005-2.8328 14.878 0.26116l293.74 102.48c3.5562 1.8017 7.7143 5.3797-0.8576 5.3578l-282.35-39.834c-10.801-2.0285-14.227-4.9777-17.431-9.1693zm95.333 88.641c-39.7-23.59-71.497-49.275-80.674-69.827-1.4456-3.724-0.6012-5.1993 7.9462-3.9953l283.02 39.928c4.1537 1.1683 10.917 4.3303 6.5056 6.7891l-196 33.244c-8.1519 0.6556-13.726-1.9511-20.797-6.1389zm163.63 80.564c-50.874-17.285-100.42-39.42-131.75-61.848-5.5656-4.1268-7.0459-6.1726-1.1152-7.1813l196.47-33.323c3.6379 0.22175 11.194 2.1206 12.126 6.4012l-57.133 97.415c-3.3185 3.164-9.5474 1.5983-18.591-1.4636zm188.09 50.9c-48.416-6.3488-102.44-19.002-147.53-37.296-8.1942-3.4238-11.603-5.492-9.8775-8.443l57.269-97.646c2.1476-0.7842 8.4724-0.65735 14.497 4.2982l97.044 135.48c2.4039 4.8247-2.8102 4.7195-11.403 3.6039zm162.14 7.5969c-32.985 6.2885-77.009 6.5068-123.77-2.7512-8.6276-1.8035-13.051-3.3398-15.994-7.4425l-97.274-135.8c0.081-1.5801 3.4801-3.2591 12.983 1.0434l225.22 137.25c7.4824 5.1926 4.68 6.576-1.1595 7.7057zm92.755-37.742c-8.7157 17.241-30.944 30.272-66.855 32.531-6.749 0.3001-11.002-0.29271-17.824-4.4477l-225.75-137.57c-2.0061-1.9525-2.4444-4.9876 7.9912-2.4909l293.05 102.24c10.556 4.1691 10.916 6.6706 9.3943 9.7428zm-1.4885-72.967c17.889 23.573 23.414 45.927 7.9786 59.097-3.062 2.3233-6.005 2.8328-14.878-0.26118l-293.74-102.48c-3.5561-1.8017-7.7142-5.3797 0.8578-5.3578l282.35 39.834c10.801 2.0285 14.227 4.9777 17.431 9.1693zm-258.97-169.21c50.874 17.285 100.42 39.42 131.75 61.848 5.5655 4.1267 7.0459 6.1726 1.1152 7.1813l-196.47 33.323c-3.638-0.22175-11.194-2.1206-12.126-6.4012l57.133-97.415c3.3185-3.164 9.5473-1.5983 18.591 1.4636zm-188.09-50.9c48.416 6.3488 102.44 19.002 147.53 37.296 8.1944 3.4238 11.603 5.492 9.8776 8.443l-57.269 97.646c-2.1477 0.78416-8.4725 0.65732-14.497-4.2982l-97.044-135.48c-2.4039-4.8247 2.8103-4.7194 11.403-3.6039zm-162.14-7.5969c32.985-6.2885 77.009-6.5067 123.77 2.7512 8.6275 1.8035 13.051 3.3398 15.994 7.4425l97.274 135.8c-0.082 1.58-3.4802 3.2591-12.983-1.0434l-225.22-137.25c-7.4824-5.1926-4.68-6.576 1.1595-7.7057z" fill="#fff" filter="url(#d)" opacity=".25"/>
  <path d="m1704.5-118.04c39.7 23.59 71.497 49.275 80.674 69.827 1.4457 3.7239 0.6012 5.1993-7.9462 3.9954l-283.02-39.928c-4.1536-1.1683-10.917-4.3303-6.5057-6.7891l196-33.244c8.1517-0.65561 13.726 1.9511 20.797 6.1389zm-606.62-101.32c8.7157-17.241 30.944-30.272 66.855-32.531 6.749-0.30009 11.002 0.29269 17.824 4.4477l225.75 137.57c2.0061 1.9525 2.4446 4.9876-7.9911 2.4909l-293.05-102.24c-10.556-4.1691-10.916-6.6705-9.3943-9.7428zm1.4886 72.967c-17.889-23.573-23.414-45.927-7.9786-59.097 3.0621-2.3233 6.005-2.8328 14.878 0.26116l293.74 102.48c3.5562 1.8017 7.7143 5.3797-0.8576 5.3578l-282.35-39.834c-10.801-2.0285-14.227-4.9777-17.431-9.1693zm95.333 88.641c-39.7-23.59-71.497-49.275-80.674-69.827-1.4456-3.724-0.6012-5.1993 7.9463-3.9953l283.02 39.928c4.1537 1.1683 10.917 4.3303 6.5056 6.7891l-196 33.244c-8.152 0.6556-13.726-1.9511-20.797-6.1389zm163.63 80.564c-50.874-17.285-100.42-39.42-131.75-61.848-5.5656-4.1268-7.0459-6.1726-1.1152-7.1813l196.47-33.323c3.6379 0.22175 11.194 2.1206 12.126 6.4012l-57.133 97.415c-3.3185 3.164-9.5474 1.5983-18.591-1.4636zm188.09 50.9c-48.416-6.3488-102.44-19.002-147.53-37.296-8.1942-3.4238-11.603-5.492-9.8775-8.443l57.269-97.646c2.1476-0.7842 8.4724-0.65735 14.497 4.2982l97.044 135.48c2.4039 4.8247-2.8101 4.7195-11.402 3.6039zm162.14 7.5969c-32.985 6.2885-77.009 6.5068-123.77-2.7512-8.6276-1.8035-13.051-3.3398-15.994-7.4425l-97.274-135.8c0.081-1.5801 3.4801-3.2591 12.983 1.0434l225.22 137.25c7.4824 5.1926 4.68 6.576-1.1595 7.7057zm92.755-37.742c-8.7158 17.241-30.944 30.272-66.855 32.531-6.749 0.3001-11.002-0.29271-17.824-4.4477l-225.75-137.57c-2.0061-1.9525-2.4445-4.9876 7.9912-2.4909l293.05 102.24c10.556 4.1691 10.916 6.6706 9.3943 9.7428zm-1.4885-72.967c17.889 23.573 23.414 45.927 7.9786 59.097-3.062 2.3233-6.0051 2.8328-14.878-0.26118l-293.74-102.48c-3.5561-1.8017-7.7142-5.3797 0.8578-5.3578l282.35 39.834c10.801 2.0285 14.227 4.9777 17.431 9.1693zm-258.97-169.21c50.874 17.285 100.42 39.42 131.75 61.848 5.5655 4.1267 7.0459 6.1726 1.1152 7.1813l-196.47 33.323c-3.638-0.22175-11.195-2.1206-12.126-6.4012l57.133-97.415c3.3186-3.164 9.5473-1.5983 18.591 1.4636zm-188.09-50.9c48.416 6.3488 102.44 19.002 147.53 37.296 8.1944 3.4238 11.603 5.492 9.8776 8.443l-57.269 97.646c-2.1477 0.78416-8.4725 0.65732-14.497-4.2982l-97.044-135.48c-2.4039-4.8247 2.8103-4.7194 11.403-3.6039zm-162.14-7.5969c32.985-6.2885 77.009-6.5067 123.77 2.7512 8.6275 1.8035 13.051 3.3398 15.994 7.4425l97.274 135.8c-0.082 1.58-3.4802 3.2591-12.983-1.0434l-225.22-137.25c-7.4825-5.1926-4.68-6.576 1.1595-7.7057z" fill="#fcb245" filter="url(#e)" opacity=".75"/>
 </g>
 <g transform="translate(-2663 -501.22)">
  <g transform="matrix(.35326 0 0 .35326 2168.3 439.01)">
   <path d="m3852.2 176.23c-202.06-2.6317-390.59 161.02-415.88 361.69-27.706 185.47 84.242 381.84 260.11 448.98 160.77 65.86 360.91 22.536 474.62-110.52 107.93-120.84 140.48-306.13 69.234-453.43-67.626-147.64-224.63-250.89-388.08-246.72z" fill="#e58620"/>
   <path d="m3600.6 302.83 54.87-4.5858-71.882 125.61 17.012-121.02z" fill="url(#n)" filter="url(#b)"/>
   <path d="m3436.3 537.92c-27.706 185.47 84.242 381.84 260.11 448.98 160.77 65.86 360.91 22.536 474.62-110.52-213.54 101.88-732.29-46.669-635.26-554.5-48.366 55.265-81.747 132.47-99.476 216.04z" fill="url(#g)"/>
   <path transform="matrix(.57641 -.81716 .81716 .57641 1265.7 3137.6)" d="m3664.9 273.45 56.843 43.907-56.516 105.51c12.43-52.79 21.617-104.81-0.3273-149.41z" fill="url(#m)" filter="url(#b)"/>
   <path d="m3852.2 176.23c-202.06-2.6317-390.59 161.02-415.88 361.69-27.706 185.47 84.242 381.84 260.11 448.98 160.77 65.86 360.91 22.536 474.62-110.52 107.93-120.84 140.48-306.13 69.234-453.43-67.626-147.64-224.63-250.89-388.08-246.72z" fill="#d35f5f" filter="url(#c)" opacity=".25"/>
   <path transform="matrix(-.47156 -.88183 .88183 -.47156 5137.2 3688.9)" d="m3664.9 273.45 56.843 43.907-67.793 147.59c12.43-52.79 32.894-146.89 10.95-191.49z" fill="url(#l)" filter="url(#b)"/>
   <path transform="matrix(.60651 .79508 -.79508 .60651 1628.7 -2838)" d="m3664.9 273.45 81.858 17.71-81.531 131.7c12.43-52.79 21.617-104.81-0.3273-149.41z" clip-path="url(#q)" fill="url(#k)" filter="url(#b)"/>
   <path d="m3669.8 265.36c6.0301 12.239-2.1637 15.58-21.276 27.08-3.2563 1.959-3.6556 5.8542-6.7374 10.52-10.664 16.146-19.212 12.287-19.455 6.7072-0.1807-4.1968-9.3172-4.358-12.365-3.5986-4.9972 1.245-6.7716 0.41919-8.7195-3.5341-7.0574-14.324-11.218-29.395 17.833-43.708 9.7283-4.7932 17.837-7.2497 24.586-7.8592 5.4245-0.48994 3.6349 8.852 7.4356 10.495 5.5909 2.4164 15.905-1.7733 18.699 3.8984z" fill="url(#f)"/>
   <path transform="matrix(2.8795 -1.6625 1.6625 2.8795 -6915.9 2753.9)" d="m3123.7 926.8c0 0.84725-2.0629 1.5349-4.6046 1.5349s-4.6046-0.68762-4.6046-1.5349 2.0628-1.5349 4.6046-1.5349 4.6046 0.68763 4.6046 1.5349z" fill="url(#j)" filter="url(#o)"/>
   <path d="m3593.1 244.94 26.391-15.525c8.2693 14.056 27.627 37.615 24.808 42.169-3.1192 5.0308-8.4576 14.476-22.092 12.907-8.5899-0.82158-20.679-25.493-29.106-39.548l-7e-4 -1e-3z" fill="url(#i)"/>
   <path d="m4206.5 479.56c0 117.16 28.824 128.13-83.647 128.13s-127.65-118.97-127.65-236.13-272.35-162.07-159.88-162.07 371.18 152.92 371.18 270.07z" clip-path="url(#r)" fill="#fff" filter="url(#p)" opacity=".68586"/>
  </g>
 </g>
</svg>
